<svg width="290" height="99" viewBox="0 0 290 99" fill="none" xmlns="http://www.w3.org/2000/svg">
<g clip-path="url(#clip0_3781_39457)">
<path d="M89.3695 37.9507C88.4641 37.9507 87.7289 38.6933 87.7289 39.6078V69.7456C87.7289 70.6602 88.4641 71.4028 89.3695 71.4028C90.2748 71.4028 91.01 70.6602 91.01 69.7456V39.6078C91.01 38.6933 90.2748 37.9507 89.3695 37.9507Z" fill="#9CA3AF"/>
<path d="M94.6702 40.3074C93.7648 40.3074 93.0297 41.05 93.0297 41.9645V57.0119C93.0297 57.9265 93.7648 58.6691 94.6702 58.6691C95.5756 58.6691 96.3107 57.9265 96.3107 57.0119V41.9645C96.3107 41.05 95.5756 40.3074 94.6702 40.3074Z" fill="#9CA3AF"/>
<path d="M73.4634 37.7826C72.558 37.7826 71.8229 38.5252 71.8229 39.4398V54.3152C71.8229 55.1086 72.4574 55.7495 73.2429 55.7495H73.6839C74.4694 55.7495 75.1039 55.1086 75.1039 54.3152V39.4398C75.1039 38.5252 74.3688 37.7826 73.4634 37.7826Z" fill="#9CA3AF"/>
<path d="M142.384 19.9211C141.479 19.9211 140.744 20.6637 140.744 21.5783V47.4363C140.744 48.3509 141.479 49.0935 142.384 49.0935C143.29 49.0935 144.025 48.3509 144.025 47.4363V21.5783C144.025 20.6637 143.29 19.9211 142.384 19.9211Z" fill="#9CA3AF"/>
<path d="M142.384 10.8536C141.479 10.8536 140.744 11.5962 140.744 12.5108V16.3684C140.744 17.283 141.479 18.0256 142.384 18.0256C143.29 18.0256 144.025 17.283 144.025 16.3684V12.5108C144.025 11.5962 143.29 10.8536 142.384 10.8536Z" fill="#9CA3AF"/>
<path d="M142.384 49.9377C141.479 49.9377 140.744 50.6803 140.744 51.5949V85.4066C140.744 86.3211 141.479 87.0637 142.384 87.0637C143.29 87.0637 144.025 86.3211 144.025 85.4066V51.5949C144.025 50.6803 143.29 49.9377 142.384 49.9377Z" fill="#9CA3AF"/>
<path d="M147.685 28.2969C146.78 28.2969 146.045 29.0395 146.045 29.954V69.0186C146.045 69.9332 146.78 70.6758 147.685 70.6758C148.591 70.6758 149.326 69.9332 149.326 69.0186V29.954C149.326 29.0395 148.591 28.2969 147.685 28.2969Z" fill="#9CA3AF"/>
<path d="M137.084 15.915C136.178 15.915 135.443 16.6576 135.443 17.5722V34.3979C135.443 35.3125 136.178 36.0551 137.084 36.0551C137.989 36.0551 138.724 35.3125 138.724 34.3979V17.5722C138.724 16.6576 137.989 15.915 137.084 15.915Z" fill="#9CA3AF"/>
<path d="M137.084 37.3019C136.178 37.3019 135.443 38.0445 135.443 38.959V91.277C135.443 92.1916 136.178 92.9342 137.084 92.9342C137.989 92.9342 138.724 92.1916 138.724 91.277V38.959C138.724 38.0445 137.989 37.3019 137.084 37.3019Z" fill="#9CA3AF"/>
<path d="M78.7642 37.4817C77.8588 37.4817 77.1237 38.2243 77.1237 39.1389V61.065C77.1237 61.8584 77.7582 62.4994 78.5436 62.4994H78.9847C79.7701 62.4994 80.4047 61.8584 80.4047 61.065V39.1389C80.4047 38.2243 79.6696 37.4817 78.7642 37.4817Z" fill="#9CA3AF"/>
<path d="M78.7642 29.4108C77.8588 29.4108 77.1237 30.1534 77.1237 31.0679V34.8435C77.1237 35.6369 77.7582 36.2778 78.5436 36.2778H78.9847C79.7701 36.2778 80.4047 35.6369 80.4047 34.8435V31.0679C80.4047 30.1534 79.6696 29.4108 78.7642 29.4108Z" fill="#9CA3AF"/>
<path d="M126.478 0C125.573 0 124.838 0.742598 124.838 1.65717V83.6556C124.838 84.5702 125.573 85.3128 126.478 85.3128C127.384 85.3128 128.119 84.5702 128.119 83.6556V1.65717C128.119 0.742598 127.384 0 126.478 0Z" fill="#9CA3AF"/>
<path d="M126.478 86.8253C125.573 86.8253 124.838 87.5679 124.838 88.4825V97.3389C124.838 98.2535 125.573 98.9961 126.478 98.9961C127.384 98.9961 128.119 98.2535 128.119 97.3389V88.4825C128.119 87.5679 127.384 86.8253 126.478 86.8253Z" fill="#9CA3AF"/>
<path d="M110.576 6.66772C109.671 6.66772 108.936 7.41032 108.936 8.32489V90.6477C108.936 91.5623 109.671 92.3049 110.576 92.3049C111.482 92.3049 112.217 91.5623 112.217 90.6477V8.32489C112.217 7.41032 111.482 6.66772 110.576 6.66772Z" fill="#9CA3AF"/>
<path d="M115.877 17.5643C114.972 17.5643 114.236 18.3069 114.236 19.2215V59.0599C114.236 59.9745 114.972 60.7171 115.877 60.7171C116.782 60.7171 117.517 59.9745 117.517 59.0599V19.2215C117.517 18.3069 116.782 17.5643 115.877 17.5643Z" fill="#9CA3AF"/>
<path d="M115.877 61.5653C114.972 61.5653 114.236 62.3079 114.236 63.2225V80.9862C114.236 81.9008 114.972 82.6434 115.877 82.6434C116.782 82.6434 117.517 81.9008 117.517 80.9862V63.2225C117.517 62.3079 116.782 61.5653 115.877 61.5653Z" fill="#9CA3AF"/>
<path d="M121.178 30.3019C120.272 30.3019 119.537 31.0445 119.537 31.959V89.7058C119.537 90.6204 120.272 91.3629 121.178 91.3629C122.083 91.3629 122.818 90.6204 122.818 89.7058V31.963C122.818 31.0484 122.083 30.3058 121.178 30.3058V30.3019Z" fill="#9CA3AF"/>
<path d="M121.178 28.8597C122.083 28.8597 122.818 28.1171 122.818 27.2025V15.6102C122.818 14.6956 122.083 13.953 121.178 13.953C120.272 13.953 119.537 14.6956 119.537 15.6102V27.2025C119.537 28.1171 120.272 28.8597 121.178 28.8597Z" fill="#9CA3AF"/>
<path d="M121.178 12.5108C122.083 12.5108 122.818 11.7682 122.818 10.8536V7.24615C122.818 6.33159 122.083 5.58899 121.178 5.58899C120.272 5.58899 119.537 6.33159 119.537 7.24615V10.8536C119.537 11.7682 120.272 12.5108 121.178 12.5108Z" fill="#9CA3AF"/>
<path d="M105.272 24.2751C104.366 24.2751 103.631 25.0177 103.631 25.9323V73.0443C103.631 73.9588 104.366 74.7014 105.272 74.7014C106.177 74.7014 106.912 73.9588 106.912 73.0443V25.9323C106.912 25.0177 106.177 24.2751 105.272 24.2751Z" fill="#9CA3AF"/>
<path d="M131.783 19.589C130.878 19.589 130.142 20.3316 130.142 21.2462V77.7227C130.142 78.6372 130.878 79.3798 131.783 79.3798C132.688 79.3798 133.423 78.6372 133.423 77.7227V21.2501C133.423 20.3355 132.688 19.5929 131.783 19.5929V19.589Z" fill="#9CA3AF"/>
<path d="M99.9709 34.4761C99.0655 34.4761 98.3304 35.2187 98.3304 36.1332V62.8433C98.3304 63.7579 99.0655 64.5005 99.9709 64.5005C100.876 64.5005 101.611 63.7579 101.611 62.8433V36.1332C101.611 35.2187 100.876 34.4761 99.9709 34.4761Z" fill="#9CA3AF"/>
<path d="M68.1627 42.6017C67.2573 42.6017 66.5222 43.3443 66.5222 44.2588V45.3337H0.843473C0.379176 45.3337 0 45.7167 0 46.1857C0 46.6547 0.379176 47.0377 0.843473 47.0377H66.5222V49.2733C66.5222 50.1879 67.2573 50.9305 68.1627 50.9305C69.0681 50.9305 69.8032 50.1879 69.8032 49.2733V44.2588C69.8032 43.3443 69.0681 42.6017 68.1627 42.6017Z" fill="#9CA3AF"/>
<path d="M84.0648 21.9496C83.1595 21.9496 82.4243 22.6922 82.4243 23.6068V52.5524C82.4243 53.3458 83.0589 53.9868 83.8443 53.9868H84.2854C85.0708 53.9868 85.7053 53.3458 85.7053 52.5524V23.6068C85.7053 22.6922 84.9702 21.9496 84.0648 21.9496Z" fill="#9CA3AF"/>
<path d="M84.0648 55.7495C83.1595 55.7495 82.4243 56.4921 82.4243 57.4067V72.2391C82.4243 73.0325 83.0589 73.6735 83.8443 73.6735H84.2854C85.0708 73.6735 85.7053 73.0325 85.7053 72.2391V57.4067C85.7053 56.4921 84.9702 55.7495 84.0648 55.7495Z" fill="#9CA3AF"/>
<path d="M195.403 11.823C194.498 11.823 193.763 12.5656 193.763 13.4802V86.9113C193.763 87.8259 194.498 88.5685 195.403 88.5685C196.309 88.5685 197.044 87.8259 197.044 86.9113V13.4802C197.044 12.5656 196.309 11.823 195.403 11.823Z" fill="#9CA3AF"/>
<path d="M168.892 43.5865C167.987 43.5865 167.251 44.3291 167.251 45.2437V81.8421C167.251 82.7566 167.987 83.4992 168.892 83.4992C169.797 83.4992 170.532 82.7566 170.532 81.8421V45.2437C170.532 44.3291 169.797 43.5865 168.892 43.5865Z" fill="#9CA3AF"/>
<path d="M200.704 23.1456C199.799 23.1456 199.064 23.8882 199.064 24.8028V59.1069C199.064 60.0215 199.799 60.7641 200.704 60.7641C201.609 60.7641 202.345 60.0215 202.345 59.1069V24.8028C202.345 23.8882 201.609 23.1456 200.704 23.1456Z" fill="#9CA3AF"/>
<path d="M200.704 62.1398C199.799 62.1398 199.064 62.8824 199.064 63.7969V74.3262C199.064 75.2408 199.799 75.9834 200.704 75.9834C201.609 75.9834 202.345 75.2408 202.345 74.3262V63.7969C202.345 62.8824 201.609 62.1398 200.704 62.1398Z" fill="#9CA3AF"/>
<path d="M190.099 32.9557C189.193 32.9557 188.458 33.6983 188.458 34.6129V40.3621C188.458 41.2767 189.193 42.0193 190.099 42.0193C191.004 42.0193 191.739 41.2767 191.739 40.3621V34.6129C191.739 33.6983 191.004 32.9557 190.099 32.9557Z" fill="#9CA3AF"/>
<path d="M190.099 44.2197C189.193 44.2197 188.458 44.9623 188.458 45.8769V95.416C188.458 96.3305 189.193 97.0731 190.099 97.0731C191.004 97.0731 191.739 96.3305 191.739 95.416V45.8769C191.739 44.9623 191.004 44.2197 190.099 44.2197Z" fill="#9CA3AF"/>
<path d="M184.798 43.0043C183.893 43.0043 183.157 43.7469 183.157 44.6614V82.4323C183.157 83.3469 183.893 84.0895 184.798 84.0895C185.703 84.0895 186.438 83.3469 186.438 82.4323V44.6614C186.438 43.7469 185.703 43.0043 184.798 43.0043Z" fill="#9CA3AF"/>
<path d="M206.005 43.5865C205.099 43.5865 204.364 44.3291 204.364 45.2437V76.2843C204.364 77.1989 205.099 77.9415 206.005 77.9415C206.91 77.9415 207.645 77.1989 207.645 76.2843V45.2437C207.645 44.3291 206.91 43.5865 206.005 43.5865Z" fill="#9CA3AF"/>
<path d="M174.197 40.1277C173.291 40.1277 172.556 40.8703 172.556 41.7849V63.5391C172.556 64.4536 173.291 65.1962 174.197 65.1962C175.102 65.1962 175.837 64.4536 175.837 63.5391V41.7849C175.837 40.8703 175.102 40.1277 174.197 40.1277Z" fill="#9CA3AF"/>
<path d="M174.197 66.1693C173.291 66.1693 172.556 66.9119 172.556 67.8265V90.7845C172.556 91.699 173.291 92.4416 174.197 92.4416C175.102 92.4416 175.837 91.699 175.837 90.7845V67.8265C175.837 66.9119 175.102 66.1693 174.197 66.1693Z" fill="#9CA3AF"/>
<path d="M158.29 36.8368C157.385 36.8368 156.65 37.5794 156.65 38.494V60.4827C156.65 61.3972 157.385 62.1398 158.29 62.1398C159.196 62.1398 159.931 61.3972 159.931 60.4827V38.494C159.931 37.5794 159.196 36.8368 158.29 36.8368Z" fill="#9CA3AF"/>
<path d="M152.99 29.5281C152.084 29.5281 151.349 30.2707 151.349 31.1852V67.7836C151.349 68.6981 152.084 69.4407 152.99 69.4407C153.895 69.4407 154.63 68.6981 154.63 67.7836V31.1852C154.63 30.2707 153.895 29.5281 152.99 29.5281Z" fill="#9CA3AF"/>
<path d="M163.591 48.476C162.686 48.476 161.951 49.2186 161.951 50.1331V76.9565C161.951 77.8711 162.686 78.6137 163.591 78.6137C164.497 78.6137 165.232 77.8711 165.232 76.9565V50.1331C165.232 49.2186 164.497 48.476 163.591 48.476Z" fill="#9CA3AF"/>
<path d="M179.497 48.7496C178.592 48.7496 177.857 49.4922 177.857 50.4068V76.683C177.857 77.5976 178.592 78.3402 179.497 78.3402C180.403 78.3402 181.138 77.5976 181.138 76.683V50.4068C181.138 49.4922 180.403 48.7496 179.497 48.7496Z" fill="#9CA3AF"/>
<path d="M216.61 37.3175C215.705 37.3175 214.97 38.0601 214.97 38.9747V53.4006C214.97 54.3152 215.705 55.0578 216.61 55.0578C217.515 55.0578 218.251 54.3152 218.251 53.4006V38.9747C218.251 38.0601 217.515 37.3175 216.61 37.3175Z" fill="#9CA3AF"/>
<path d="M211.305 34.5815C210.4 34.5815 209.665 35.3241 209.665 36.2387V49.4569C209.665 50.3715 210.4 51.1141 211.305 51.1141C212.211 51.1141 212.946 50.3715 212.946 49.4569V36.2387C212.946 35.3241 212.211 34.5815 211.305 34.5815Z" fill="#9CA3AF"/>
<path d="M211.305 52.0835C210.4 52.0835 209.665 52.8261 209.665 53.7407V58.6926C209.665 59.6072 210.4 60.3498 211.305 60.3498C212.211 60.3498 212.946 59.6072 212.946 58.6926V53.7407C212.946 52.8261 212.211 52.0835 211.305 52.0835Z" fill="#9CA3AF"/>
<path d="M289.157 45.3336H223.478V43.6765C223.478 42.7619 222.743 42.0193 221.837 42.0193C220.932 42.0193 220.197 42.7619 220.197 43.6765V48.6909C220.197 49.6055 220.932 50.3481 221.837 50.3481C222.743 50.3481 223.478 49.6055 223.478 48.6909V47.0338H289.157C289.621 47.0338 290 46.6508 290 46.1817C290 45.7127 289.621 45.3297 289.157 45.3297V45.3336Z" fill="#9CA3AF"/>
</g>
<defs>
<clipPath id="clip0_3781_39457">
<rect width="290" height="99" fill="white"/>
</clipPath>
</defs>
</svg>
