<svg width="32" height="32" viewBox="0 0 32 32" fill="none" xmlns="http://www.w3.org/2000/svg">
<mask id="mask0_3830_595" style="mask-type:alpha" maskUnits="userSpaceOnUse" x="4" y="4" width="24" height="24">
<rect x="4" y="4" width="24" height="24" fill="#D9D9D9"/>
</mask>
<g mask="url(#mask0_3830_595)">
<path d="M16 20C15.7167 20 15.4792 19.9042 15.2875 19.7125C15.0958 19.5208 15 19.2833 15 19V8.82499L14.1 9.72499C13.9167 9.90832 13.6875 9.99999 13.4125 9.99999C13.1375 9.99999 12.9 9.89999 12.7 9.69999C12.5167 9.49999 12.425 9.26249 12.425 8.98749C12.425 8.71249 12.5167 8.48332 12.7 8.29999L15.3 5.69999C15.3833 5.61665 15.4875 5.54999 15.6125 5.49999C15.7375 5.44999 15.8667 5.42499 16 5.42499C16.1333 5.42499 16.2625 5.44999 16.3875 5.49999C16.5125 5.54999 16.6167 5.61665 16.7 5.69999L19.3 8.29999C19.5 8.49999 19.6 8.74165 19.6 9.02499C19.6 9.30832 19.5 9.54165 19.3 9.72499C19.1 9.90832 18.8625 9.99999 18.5875 9.99999C18.3125 9.99999 18.0833 9.90832 17.9 9.72499L17 8.82499V19C17 19.2833 16.9042 19.5208 16.7125 19.7125C16.5208 19.9042 16.2833 20 16 20ZM10 27C9.45 27 8.97917 26.8042 8.5875 26.4125C8.19583 26.0208 8 25.55 8 25V14C8 13.45 8.19583 12.9792 8.5875 12.5875C8.97917 12.1958 9.45 12 10 12H12C12.2833 12 12.5208 12.0958 12.7125 12.2875C12.9042 12.4792 13 12.7167 13 13C13 13.2833 12.9042 13.5208 12.7125 13.7125C12.5208 13.9042 12.2833 14 12 14H10V25H22V14H20C19.7167 14 19.4792 13.9042 19.2875 13.7125C19.0958 13.5208 19 13.2833 19 13C19 12.7167 19.0958 12.4792 19.2875 12.2875C19.4792 12.0958 19.7167 12 20 12H22C22.55 12 23.0208 12.1958 23.4125 12.5875C23.8042 12.9792 24 13.45 24 14V25C24 25.55 23.8042 26.0208 23.4125 26.4125C23.0208 26.8042 22.55 27 22 27H10Z" fill="#1F2937"/>
</g>
</svg>
