<svg width="32" height="32" viewBox="0 0 32 32" fill="none" xmlns="http://www.w3.org/2000/svg">
<mask id="mask0_3830_511" style="mask-type:alpha" maskUnits="userSpaceOnUse" x="4" y="4" width="24" height="24">
<rect x="4" y="4" width="24" height="24" fill="#D9D9D9"/>
</mask>
<g mask="url(#mask0_3830_511)">
<path d="M16 17.4L11.1 22.3C10.9167 22.4833 10.6833 22.575 10.4 22.575C10.1167 22.575 9.88334 22.4833 9.7 22.3C9.51667 22.1167 9.425 21.8833 9.425 21.6C9.425 21.3167 9.51667 21.0833 9.7 20.9L14.6 16L9.7 11.1C9.51667 10.9167 9.425 10.6833 9.425 10.4C9.425 10.1167 9.51667 9.88332 9.7 9.69999C9.88334 9.51665 10.1167 9.42499 10.4 9.42499C10.6833 9.42499 10.9167 9.51665 11.1 9.69999L16 14.6L20.9 9.69999C21.0833 9.51665 21.3167 9.42499 21.6 9.42499C21.8833 9.42499 22.1167 9.51665 22.3 9.69999C22.4833 9.88332 22.575 10.1167 22.575 10.4C22.575 10.6833 22.4833 10.9167 22.3 11.1L17.4 16L22.3 20.9C22.4833 21.0833 22.575 21.3167 22.575 21.6C22.575 21.8833 22.4833 22.1167 22.3 22.3C22.1167 22.4833 21.8833 22.575 21.6 22.575C21.3167 22.575 21.0833 22.4833 20.9 22.3L16 17.4Z" fill="#1F2937"/>
</g>
</svg>
