<svg width="122" height="119" viewBox="0 0 122 119" fill="none" xmlns="http://www.w3.org/2000/svg">
<path d="M118.191 59.147C118.191 70.7983 114.744 81.6838 108.782 90.7642C107.469 92.8428 106.047 94.7026 104.515 96.5624C93.8488 109.198 77.8761 117.239 60.0983 117.239C42.3205 117.239 26.3478 109.144 15.6812 96.5624C14.1495 94.7026 12.7273 92.8428 11.4145 90.8189C9.88288 88.412 8.40595 85.8411 7.20253 83.1607C6.27262 81.0274 5.3427 78.8394 4.68629 76.5419C3.53757 73.0958 2.77176 69.6496 2.33415 66.0394C2.17005 65.1641 2.11535 64.2889 2.06065 63.3043C2.00595 61.9368 1.89655 60.4599 1.89655 59.0376C1.89655 42.7915 8.51535 28.1863 19.2367 17.6291C20.3307 16.5351 21.5342 15.4957 22.6829 14.4564C32.8573 6.14188 45.8761 1 60.0983 1C71.4761 1 82.1428 4.28205 91.1684 9.97095C91.606 10.1897 91.9889 10.4633 92.4265 10.7915C92.8094 11.065 93.247 11.2838 93.5752 11.612C95.7633 13.1436 97.8966 14.8393 99.8111 16.6992C100.96 17.7932 102.109 18.8872 103.093 20.0906C104.351 21.5128 105.609 22.9351 106.703 24.5214C106.977 24.9043 107.196 25.2325 107.524 25.6154C107.797 25.9983 108.016 26.3265 108.344 26.7094C111.627 31.5778 114.143 36.9385 115.893 42.6274C116.167 43.6667 116.495 44.5966 116.714 45.6359C117.644 49.9026 118.191 54.4428 118.191 59.147Z" stroke="#D1D5DB" stroke-width="2" stroke-miterlimit="10" stroke-linecap="round" stroke-linejoin="round"/>
<path d="M113.322 90.7643V96.5626H15.6264C14.0948 94.7028 12.6726 92.8429 11.3597 90.819H113.322V90.7643Z" fill="#E5E7EB" stroke="#D1D5DB" stroke-width="2" stroke-miterlimit="10"/>
<path d="M116.003 46.1283H68.6316V43.1198H115.182C115.565 44.0497 115.784 45.089 116.003 46.1283Z" fill="#E5E7EB"/>
<path d="M106.922 26.0529V43.5025H82.7443V11.3384H91.7153C92.0982 11.6119 92.5358 11.8307 92.864 12.1589C95.052 13.6905 97.1854 15.3862 99.0999 17.2461C100.249 18.3401 101.397 19.4341 102.382 20.6375C103.64 22.0597 104.898 23.482 105.992 25.0683C106.375 25.3418 106.703 25.7247 106.922 26.0529Z" fill="white"/>
<path d="M106.922 26.053C106.649 25.6701 106.43 25.3418 106.102 24.9589V42.7367H83.5649V12.1042H92.864C92.4811 11.8307 92.1529 11.6119 91.7153 11.2837C91.3324 11.0102 90.8948 10.7914 90.4572 10.4632H81.8691V44.2137H107.579V27.147C107.414 26.8188 107.196 26.4359 106.922 26.053Z" fill="#E5E7EB"/>
<path d="M102.491 20.583V37.6497H87.1204V17.1916H99.0999C100.358 18.2856 101.452 19.3796 102.491 20.583Z" fill="#E5E7EB"/>
<path d="M41.1717 89.7796C41.1717 90.272 40.7888 90.6549 40.3512 90.819C40.2965 90.819 40.1871 90.819 40.1324 90.819H11.3598C9.82814 88.4121 8.35122 85.8412 7.1478 83.1608C8.46062 80.9728 9.22643 78.6207 9.55464 76.542C9.71874 75.8309 9.77344 75.1745 9.82814 74.4634H31.5444C31.5991 75.1198 31.7632 75.7762 31.9273 76.542C32.7478 80.4805 34.8811 85.4036 39.3666 88.7403H40.0777C40.7341 88.7403 41.1717 89.2326 41.1717 89.7796Z" fill="#E5E7EB" stroke="#D1D5DB" stroke-width="2" stroke-miterlimit="10"/>
<path d="M61.5753 17.0274V74.0804C61.5753 75.4479 60.4813 76.4872 59.1685 76.4872H4.68637C3.59235 73.2052 2.82654 69.759 2.38893 66.1488C2.22483 65.2736 2.17013 64.3983 2.11543 63.4137C2.06073 61.9915 1.95132 60.5693 1.95132 59.147C1.95132 42.9009 8.57013 28.2957 19.2915 17.7385C20.3855 16.6445 21.5889 15.6051 22.7377 14.5658H59.0591C60.536 14.5658 61.5753 15.7692 61.5753 17.0274Z" fill="#E5E7EB" stroke="#D1D5DB" stroke-width="2" stroke-miterlimit="10"/>
<path d="M61.5753 17.0274V66.1488H2.38893C2.22483 65.2736 2.17013 64.3983 2.11543 63.4137C2.06073 61.9915 1.95132 60.5693 1.95132 59.147C1.95132 42.9009 8.57013 28.2957 19.2915 17.7385C20.3855 16.6445 21.5889 15.6051 22.7377 14.5658H59.0591C60.536 14.5658 61.5753 15.7692 61.5753 17.0274Z" fill="#E5E7EB" stroke="#D1D5DB" stroke-width="2" stroke-miterlimit="10"/>
<path d="M58.4025 17.7385V63.4684H2.16999C2.11529 62.0462 2.00589 60.624 2.00589 59.2018C2.00589 42.9556 8.6247 28.3505 19.3461 17.7932H58.4025V17.7385Z" fill="white" stroke="#D1D5DB" stroke-width="2" stroke-miterlimit="10" stroke-linecap="round" stroke-linejoin="round"/>
<path d="M20.4399 73.588C21.5339 73.588 22.4091 72.7128 22.4091 71.6187C22.4091 70.5247 21.5339 69.6495 20.4399 69.6495C19.3459 69.6495 18.4707 70.5247 18.4707 71.6187C18.4707 72.7128 19.3459 73.588 20.4399 73.588Z" fill="#D1D5DB"/>
<path d="M31.271 77.4172V79.7694H29.63C28.7001 79.7694 27.8795 80.5899 27.8795 81.5198V84.8018C27.8795 85.7318 28.7001 86.5523 29.63 86.5523H31.271V89.0685C31.271 89.9437 31.9821 90.7095 32.912 90.7095H40.1872C41.0625 90.7095 41.8283 89.9984 41.8283 89.0685V77.3078H31.271V77.4172ZM29.63 85.3488C29.4112 85.3488 29.1924 85.13 29.1924 84.9112V81.6292C29.1924 81.4104 29.4112 81.1916 29.63 81.1916H31.271V85.4035H29.63V85.3488Z" fill="#D1D5DB" stroke="#9CA3AF" stroke-width="2" stroke-miterlimit="10" stroke-linejoin="round"/>
<path d="M36.6315 63.5776C37.2879 65.2187 37.452 66.8597 36.4674 68.1178C35.5374 69.4306 34.8263 71.1811 35.811 72.5486C36.7409 73.8614 37.0691 74.9007 36.6862 75.5571C36.3033 76.2135 36.6862 75.5024 37.9443 74.0802C39.0383 72.9315 37.0691 71.9469 37.0144 71.0169C36.9597 70.1417 38.0537 68.2819 38.0537 67.0785C37.999 65.7657 37.3973 64.0699 36.6315 63.5776Z" fill="#D1D5DB"/>
<path d="M33.8966 70.7436C34.1701 71.5641 34.2795 72.3846 33.8419 73.041C33.4043 73.6974 33.0214 74.5726 33.5684 75.229C34.0607 75.8855 34.1701 76.3778 34.006 76.7607C33.8419 77.1436 34.006 76.7607 34.6624 76.0496C35.1547 75.4479 34.2248 74.9555 34.1701 74.5179C34.1154 74.0803 34.6624 73.2051 34.6624 72.5487C34.6077 71.8376 34.3342 71.0171 33.8966 70.7436Z" fill="#D1D5DB"/>
<path d="M63.1614 78.9486C63.7631 77.6358 65.7871 75.1196 67.8657 74.0802C68.1392 73.9161 68.4674 74.0255 68.5768 74.299C69.1785 75.3384 70.6555 77.964 70.1084 80.5349C69.3973 83.6529 63.1614 78.9486 63.1614 78.9486Z" fill="#D1D5DB" stroke="#9CA3AF" stroke-width="2" stroke-miterlimit="10" stroke-linejoin="round"/>
<path d="M60.5905 79.1674C60.5905 79.1674 57.9648 76.323 56.2691 75.2837C55.8315 75.0649 55.3392 75.229 55.1204 75.6666C53.2606 79.1675 53.2606 83.2153 53.6982 85.3486C54.1905 87.6461 58.1289 81.3008 58.1289 81.3008L60.5905 79.1674Z" fill="#D1D5DB" stroke="#9CA3AF" stroke-width="2" stroke-miterlimit="10" stroke-linejoin="round"/>
<path d="M59.387 80.0976C59.387 80.0976 57.746 78.3472 56.7613 77.6908C56.4878 77.5814 56.1596 77.6361 56.0502 77.9096C54.9562 80.0976 54.9015 82.5592 55.2297 83.872C55.5579 85.2942 57.9648 81.3557 57.9648 81.3557L59.387 80.0976Z" fill="#9CA3AF"/>
<path d="M64.8572 79.1127C65.1854 78.2374 66.4982 76.5964 67.7564 75.94C67.9205 75.8853 68.0846 75.94 68.2487 76.1041C68.5769 76.7605 69.5068 78.4562 69.1786 80.152C68.741 82.2306 64.8572 79.1127 64.8572 79.1127Z" fill="#9CA3AF"/>
<path d="M116.167 112.973C110.587 110.621 111.408 103.291 111.955 96.5077C112.447 96.5077 112.885 96.5077 113.377 96.5077C113.377 94.5932 113.377 92.624 113.377 90.7094C113.377 90.6547 110.806 90.7641 110.533 90.7641C109.275 90.7641 108.618 90.053 107.579 89.6154C107.688 89.6701 107.305 92.624 107.251 92.9522C105.445 100.884 101.78 103.674 105.227 107.338C106.266 108.433 106.758 110.785 104.351 111.824C101.945 112.754 100.522 109.253 99.7019 107.557C98.2796 104.603 99.4831 100.227 101.015 91.2564C101.015 91.2564 84.0027 91.2017 79.1343 91.2564C78.8061 92.624 76.0711 102.142 75.6882 104.111C75.0865 107.065 76.0711 109.198 76.2899 110.785C76.5087 112.48 73.6642 113.629 71.5309 111.715C68.7959 109.198 71.695 105.315 72.0779 96.6718C72.0779 96.1795 72.242 90.8735 71.9138 90.8735C66.2796 90.8735 60.7001 90.8188 55.0659 90.9282C54.4095 90.9282 53.4249 91.2017 53.042 90.6C49.9788 86.1146 57.7463 75.9949 66.389 78.6205C67.8112 79.0581 69.3429 79.9881 70.8745 80.0975C70.8745 80.0975 71.7497 79.824 76.1805 76.5966C83.6198 72.3299 92.9737 72.6581 98.7719 74.0257C106.594 75.8855 107.962 82.1761 110.204 84.9658C113.432 89.0137 116.495 90.053 116.057 99.9539C115.893 103.947 115.839 106.08 119.121 108.378C121.309 110.128 119.558 114.395 116.167 112.973Z" fill="white" stroke="#9CA3AF" stroke-width="2" stroke-miterlimit="10" stroke-linejoin="round"/>
<path d="M63.9819 89.9435C63.3802 89.9982 62.6144 90.1076 61.9033 90.1076C61.6845 90.1076 61.411 90.1076 61.1922 90.1623C58.7854 90.217 56.4879 89.8888 56.1597 88.0837C55.9409 86.6615 57.9648 84.8563 59.0589 84.2546C62.7785 82.176 66.6076 85.2392 67.0452 87.0991C67.3734 88.6854 65.6777 89.67 63.9819 89.9435Z" fill="#D1D5DB" stroke="#9CA3AF" stroke-width="2" stroke-miterlimit="10" stroke-linejoin="round"/>
<path d="M61.5754 87.9744C62.1771 87.9744 62.6694 87.7556 62.6694 87.4274C62.6694 87.0992 62.1771 86.8804 61.5754 86.8804C60.9737 86.8804 60.4814 87.0992 60.4814 87.4274C60.4814 87.7556 60.9737 87.9744 61.5754 87.9744Z" fill="#9CA3AF"/>
<path d="M62.1223 87.9744V90.1078C61.7941 90.1078 61.3565 90.1625 61.0283 90.1625V88.0291L62.1223 87.9744Z" fill="#9CA3AF"/>
<path d="M76.2351 110.785C76.4539 112.481 73.6095 113.629 71.4762 111.715C69.3428 109.745 71.3121 103.127 71.8591 99.6258C72.1326 97.766 72.1326 95.5233 72.0779 93.7728C73.0078 94.9216 75.3052 97.8207 76.9462 99.3523C76.4539 101.267 75.9069 103.017 75.6881 104.221C75.0864 107.01 75.9616 109.144 76.2351 110.785Z" fill="#D1D5DB"/>
<path d="M105.117 107.393C106.157 108.487 106.649 110.839 104.242 111.879C101.835 112.809 100.413 109.308 99.5925 107.612C98.772 105.916 98.9361 101.869 99.5925 98.5864C99.8113 97.4377 100.085 96.1796 100.249 95.0856C100.741 95.3591 101.288 95.6873 101.726 96.0155C102.875 96.8907 104.023 97.93 105.336 98.6412C104.734 100.337 104.242 101.704 103.914 102.361C103.203 104.166 104.078 106.299 105.117 107.393Z" fill="#D1D5DB"/>
<path d="M119.066 112.644C117.425 114.176 114.635 112.426 113.103 110.675C111.572 108.925 111.244 103.455 111.791 98.6957C111.845 97.8752 111.955 97.164 111.845 96.5076H113.322V90.7093H108.837C108.782 90.6546 108.673 90.5452 108.618 90.4905C108.673 90.2717 108.782 89.9982 108.837 89.7794C109.22 88.6307 108.618 87.482 109.931 85.0204C110.314 85.6222 110.642 85.9504 111.025 86.2786C111.736 86.935 112.502 87.4273 113.815 89.2871C116.386 92.788 116.003 100.173 115.893 103.072C115.839 106.08 117.862 107.94 119.121 108.432C120.215 108.979 120.652 111.113 119.066 112.644Z" fill="#D1D5DB"/>
<path d="M116.167 112.973C110.587 110.621 111.408 103.291 111.955 96.5077C112.447 96.5077 112.885 96.5077 113.377 96.5077C113.377 94.5932 113.377 94.812 113.377 92.8428C113.377 92.7881 112.119 92.2958 111.627 91.9129C110.587 91.2017 108.618 89.9983 107.579 89.6154C107.688 89.6701 107.305 92.624 107.251 92.9522C105.445 100.884 101.781 103.674 105.227 107.338C106.266 108.433 106.758 110.785 104.351 111.824C101.945 112.754 100.522 109.253 99.7019 107.557C98.2796 104.603 99.4831 100.227 101.015 91.2564C101.015 91.2564 84.0027 91.2017 79.1343 91.2564C78.8061 92.624 76.0711 102.142 75.6882 104.111C75.0865 107.065 76.0711 109.198 76.2899 110.785C76.5087 112.48 73.6642 113.629 71.5309 111.715C68.7959 109.198 71.695 105.315 72.0779 96.6718C72.0779 96.1795 72.242 90.8735 71.9138 90.8735C66.2796 90.8735 60.7001 90.8188 55.0659 90.9282C54.4095 90.9282 53.4249 91.2017 53.042 90.6C49.9788 86.1146 57.7463 75.9949 66.389 78.6205C67.8112 79.0581 69.3429 79.9881 70.8745 80.0975C70.8745 80.0975 71.7497 79.824 76.1805 76.5966C83.6198 72.3299 92.9737 72.6581 98.7719 74.0257C106.594 75.8855 107.962 82.1761 110.204 84.9658C113.432 89.0137 116.495 90.053 116.057 99.9539C115.893 103.947 115.839 106.08 119.121 108.378C121.309 110.128 119.558 114.395 116.167 112.973Z" stroke="#9CA3AF" stroke-width="2" stroke-miterlimit="10" stroke-linejoin="round"/>
<path d="M65.4043 81.5199H65.3496L63.8179 81.3011C63.5444 81.3011 63.3803 81.0275 63.3803 80.8087C63.3803 80.5352 63.6538 80.3711 63.8726 80.3711L65.4043 80.5899C65.6778 80.5899 65.8419 80.8634 65.8419 81.0822C65.8419 81.4104 65.6231 81.5199 65.4043 81.5199Z" fill="#9CA3AF"/>
<path d="M58.0195 81.6837H58.0742L59.6058 81.4649C59.8793 81.4649 60.0434 81.1914 60.0434 80.9726C60.0434 80.6991 59.7699 80.535 59.5511 80.535L58.0195 80.7538C57.746 80.7538 57.5819 81.0273 57.5819 81.2461C57.6913 81.4649 57.8007 81.629 58.0195 81.6837Z" fill="#9CA3AF"/>
<path d="M69.8709 42.9539L69.4109 40.3143L79.7397 38.5142L80.1997 41.1538L74.6217 50.8765L81.7945 49.6264L82.2545 52.266L71.4667 54.1461L71.0066 51.5065L76.5846 41.7839L69.8709 42.9539Z" fill="#9CA3AF"/>
<path d="M65.9159 61.1631L66.3955 59.5937L72.4638 61.448L71.9843 63.0174L66.3852 66.7403L70.5703 68.0191L70.0907 69.5885L63.7085 67.6383L64.1881 66.0689L69.7871 62.346L65.9159 61.1631Z" fill="#9CA3AF"/>
<path d="M108.071 90.8736H113.322V90.8188V96.6171H106.867" fill="#E5E7EB"/>
<path d="M108.071 90.8736H113.322V90.8188V96.6171H106.867" stroke="#D1D5DB" stroke-width="2" stroke-miterlimit="10"/>
</svg>
